<svg id="Слой_1" data-name="Слой 1" xmlns="http://www.w3.org/2000/svg" viewBox="0 0 116.39 142.91"><defs><style>.cls-1{fill:#d78048;}.cls-2{fill:#503c14;fill-rule:evenodd;}</style></defs><g id="shape-svg"><g id="Слой_2" data-name="Слой 2"><g id="Слой_1-2" data-name="Слой 1-2"><path class="cls-1" d="M.14,0h116.1c0,22.57,0,45.13.13,67.7.16,9.51-.59,19.43-4.68,28.17-9.24,21.79-29.09,37.48-50.43,46.57-2.78,1.2-5.72-.15-8.28-1.23-16.6-7.75-31.6-19.52-41.95-34.77C4.47,96.42,1.39,84.54.71,72.76-.58,48.5.32,24.25.14,0ZM5.77,5.67c0,19.13-.22,38.28,0,57.41,0,9.92,1.1,20,4.41,29.52,4.88,12.72,14.21,23.27,25,31.39,7,5.88,15.33,9.81,23.57,13.66,9.85-4.78,19.77-9.82,27.94-17.26,13.59-11.76,24.33-28.66,24-47.2.13-22.51-.07-45,0-67.52Q58.17,5.6,5.77,5.67Z"/></g></g></g><g id="icon-svg"><path class="cls-2" d="M36.51,49.05c-6.48,4-4.45,13.52,3,14.17,5.13.45,8.71-3.13,8.26-8.26a7.51,7.51,0,0,0-11.28-5.91m38.18-.57A8.05,8.05,0,0,0,70.17,55c-.76,8.69,10.44,11.71,14.49,3.92,3.06-5.88-3.76-13-10-10.39M23.33,60.34C16.8,61.79,10.51,65.43,9,68.65c-1.19,2.51-.34,5.31,2.65,8.71l2.26,2.56H10.07c-3.27,0-4,.18-5,1.28a3.49,3.49,0,0,0,.08,5.24c1.2,1.13,1.78,1.2,10.65,1.2,9.09,0,9.41,0,10.57-1.28,2.14-2.27,1.61-3.81-2.76-8l-4-3.8L23,73.33l3.34-1.22L26,68.37c-.24-3.29-.13-3.89.9-4.92,2.69-2.68,5.58-.62,5.58,4,0,3.63,1.06,5.14,5.73,8.16,6.39,4.13,11.36,4.59,11.36,1,0-1.93-.52-2.33-4.62-3.57-2.57-.78-3.88-1.63-6.34-4.12a36.91,36.91,0,0,1-4.2-5c-2.27-3.85-5.46-4.89-11.12-3.63m64.5-.22c-2.11.62-5.15,3.95-5.15,5.64,0,1.36,1.41,3.69,2.24,3.69.28,0,.52-1.12.52-2.48,0-4.14,3-6,5.58-3.51,1,1,1.14,1.6.87,4.9l-.32,3.72L95,73.31l3.37,1.24-4,3.8c-4.42,4.25-5,5.94-2.69,8.09,1.21,1.13,1.79,1.2,10.65,1.2,9.09,0,9.42,0,10.58-1.28a3.5,3.5,0,0,0-.08-5.24c-1-1-1.93-1.2-5-1.2h-3.73l2.26-2.56c4.72-5.37,4.24-9-1.71-12.89-5.27-3.41-13.09-5.43-16.8-4.35M27.62,63.74c-1.23.86-1.28,1.12-.92,5a39.54,39.54,0,0,0,4.79,15.32c2,3.24,3.11,4,4.87,3,1.6-.86,1.4-2.56-.78-6.67A29.33,29.33,0,0,1,32,67.68c0-1.91-.31-3-1.1-3.74-1.34-1.34-1.6-1.36-3.25-.2m59.47.2c-.78.78-1.1,1.83-1.1,3.64a30.67,30.67,0,0,1-3.63,12.87C80.2,84.54,80,86.24,81.6,87.1c1.76.94,2.91.23,4.87-3a39.66,39.66,0,0,0,4.77-15c.35-3.54.28-4-.78-5.08-1.45-1.45-2-1.46-3.37-.06M47.94,81.34c-.84,2.21-.68,2.44,1.67,2.44s2.51-.23,1.67-2.44a1.69,1.69,0,0,0-3.34,0M61.2,81c-1.11,2.08-.71,2.79,1.59,2.79,1.95,0,2.12-.11,1.85-1.24C64,79.87,62.23,79.08,61.2,81m7.26-.41a3.17,3.17,0,0,0-.66,1.93c0,1.08.28,1.27,1.93,1.27s1.93-.19,1.93-1.27c0-1.35-.93-2.59-1.93-2.59a2.24,2.24,0,0,0-1.27.66M41.34,86c0,1.08.37,1.11,18.19,1.11s18.19,0,18.19-1.11-.37-1.1-18.19-1.1-18.19,0-18.19,1.1"/></g></svg>