<svg id="Слой_1" data-name="Слой 1" xmlns="http://www.w3.org/2000/svg" viewBox="0 0 100 100"><path d="M70.1,56.7c-6.41,0-9.49,3.12-20,3.12s-13.57-3.12-20-3.12C13.54,56.7.1,68.46.1,83v8.12c0,5.18,4.8,9.38,10.71,9.38H89.39c5.91,0,10.71-4.2,10.71-9.38V83C100.1,68.46,86.66,56.7,70.1,56.7ZM93,91.07a3.39,3.39,0,0,1-3.57,3.13H10.81a3.39,3.39,0,0,1-3.57-3.13V83c0-11,10.25-20,22.86-20,4.37,0,8.73,3.12,20,3.12S65.72,63,70.1,63C82.71,63,93,71.91,93,83ZM50.1,50.45c15.78,0,28.57-11.19,28.57-25S65.88.45,50.1.45s-28.57,11.19-28.57,25S34.32,50.45,50.1,50.45Zm0-43.75c11.81,0,21.43,8.42,21.43,18.75S61.91,44.2,50.1,44.2,28.67,35.78,28.67,25.45,38.29,6.7,50.1,6.7Z" transform="translate(-0.1 -0.45)"/></svg>